HIERARCHY
ROOT Hips
{
	OFFSET -0.179506 -22.333345 2.821913
	CHANNELS 6 Xposition Yposition Zposition Zrotation Yrotation Xrotation 
	JOINT LeftUpLeg
	{
		OFFSET 6.951974 -9.140623 -0.681533
		CHANNELS 3 Zrotation Yrotation Xrotation
		JOINT LeftLeg
		{
			OFFSET 3.427654 -37.519855 -0.449580
			CHANNELS 3 Zrotation Yrotation Xrotation
			JOINT LeftFoot
			{
				OFFSET -1.359570 -39.796059 -4.369333
				CHANNELS 3 Zrotation Yrotation Xrotation
				JOINT LeftToe
				{
					OFFSET 2.635814 -5.579078 11.928840
					CHANNELS 3 Zrotation Yrotation Xrotation
					End Site
					{
						OFFSET 0.000000 0.000000 0.000000
					}
				}
			}
		}
	}
	JOINT RightUpLeg
	{
		OFFSET -6.767048 -9.052170 -0.431982
		CHANNELS 3 Zrotation Yrotation Xrotation
		JOINT RightLeg
		{
			OFFSET -3.829005 -38.256897 -0.885003
			CHANNELS 3 Zrotation Yrotation Xrotation
			JOINT RightFoot
			{
				OFFSET 1.577377 -39.841461 -4.231180
				CHANNELS 3 Zrotation Yrotation Xrotation
				JOINT RightToe
				{
					OFFSET -2.537174 -4.814398 12.334795
					CHANNELS 3 Zrotation Yrotation Xrotation
					End Site
					{
						OFFSET 0.000000 0.000000 0.000000
					}
				}
			}
		}
	}
	JOINT Spine
	{
		OFFSET -0.253288 10.896323 -2.669631
		CHANNELS 3 Zrotation Yrotation Xrotation
		JOINT Spine1
		{
			OFFSET 0.548704 13.518043 0.109247
			CHANNELS 3 Zrotation Yrotation Xrotation
			JOINT Spine2
			{
				OFFSET 0.145701 5.292222 2.542457
				CHANNELS 3 Zrotation Yrotation Xrotation
				JOINT Neck
				{
					OFFSET -0.277840 21.387037 -4.285703
					CHANNELS 3 Zrotation Yrotation Xrotation
					JOINT Head
					{
						OFFSET 0.515184 6.496960 5.134897
						CHANNELS 3 Zrotation Yrotation Xrotation
						End Site
						{
							OFFSET 0.000000 0.000000 0.000000
						}
					}
				}
				JOINT LeftShoulder
				{
					OFFSET 7.884473 12.174932 -3.408961
					CHANNELS 3 Zrotation Yrotation Xrotation
					JOINT LeftArm
					{
						OFFSET 9.097692 3.046888 -0.886815
						CHANNELS 3 Zrotation Yrotation Xrotation
						JOINT LeftForeArm
						{
							OFFSET 25.961220 -1.277207 -2.745643
							CHANNELS 3 Zrotation Yrotation Xrotation
							JOINT LeftHand
							{
								OFFSET 24.923361 0.898606 -0.117091
								CHANNELS 3 Zrotation Yrotation Xrotation
								End Site
								{
									OFFSET 0.000000 0.000000 0.000000
								}
							}
						}
					}
				}
				JOINT RightShoulder
				{
					OFFSET -8.175920 11.883285 -3.861528
					CHANNELS 3 Zrotation Yrotation Xrotation
					JOINT RightArm
					{
						OFFSET -9.601238 3.255117 -0.914307
						CHANNELS 3 Zrotation Yrotation Xrotation
						JOINT RightForeArm
						{
							OFFSET -25.374195 -1.332924 -2.140099
							CHANNELS 3 Zrotation Yrotation Xrotation
							JOINT RightHand
							{
								OFFSET -25.529810 0.777228 -0.555919
								CHANNELS 3 Zrotation Yrotation Xrotation
								End Site
								{
									OFFSET 0.000000 0.000000 0.000000
								}
							}
						}
					}
				}
			}
		}
	}
}
MOTION
Frames: 5
Frame Time: 0.033333
-2.610111 115.840302 -28.685135 -175.430711 36.756713 -174.890633 5.731230 3.467670 -6.286561 -1.477884 4.260865 0.790777 3.527871 14.485176 -4.213320 1.686688 -1.107909 -0.401842 -1.528672 -0.880197 1.232749 0.504741 5.024243 10.991894 8.434720 -6.182094 3.138857 -1.040249 2.887686 -0.711094 -5.197948 1.999162 8.773779 -1.171199 -2.941863 -2.700542 0.385115 -0.982034 5.540756 -0.109177 8.424730 4.185348 4.101979 8.572934 3.768001 -10.965518 -5.614260 -2.119692 -49.708011 -12.660773 10.493270 -1.082997 -16.646049 7.170154 -3.345275 -7.861996 8.837567 8.950869 4.257055 -0.374769 59.361521 -1.929408 17.427962 5.727887 29.129414 13.609107 10.533121 6.811438 -2.931203 
-2.539378 115.781540 -28.400284 -175.327776 36.545786 -174.655974 5.965146 3.360340 -6.852216 -1.428098 4.263686 1.203143 3.589273 14.377399 -4.219818 1.711960 -1.108541 -0.427135 -1.336989 -1.141791 1.273786 0.589439 4.651836 11.349443 8.532172 -5.621631 2.457978 -0.918475 2.788962 -0.742287 -5.348083 2.178875 9.078253 -1.212482 -2.971167 -2.579116 0.325382 -0.941977 5.427434 -0.231788 8.718227 4.815056 3.948303 8.783779 4.296199 -10.830216 -5.854271 -2.234220 -49.538976 -13.428719 10.866196 -1.015085 -18.462378 7.577367 -2.452544 -8.270384 8.947815 8.934900 4.221416 -0.255947 59.483473 -1.887440 17.511908 5.626071 29.367099 13.451531 9.946461 7.157377 -2.873933 
-2.572654 115.720016 -28.057018 -175.400903 36.064342 -174.565245 6.058273 3.262069 -7.471327 -1.481966 4.170032 1.543464 3.544614 14.210665 -4.186439 1.760919 -1.143292 -0.503419 -1.294351 -1.487175 1.349683 0.674949 4.165321 12.338962 8.481956 -5.666701 2.043313 -0.833397 2.711320 -0.819307 -5.462937 2.356188 9.342785 -1.259261 -2.955313 -2.616948 0.276833 -0.914164 5.544411 -0.312782 8.918388 5.238054 3.871721 8.819020 4.957518 -10.608130 -5.926193 -2.397377 -49.464649 -14.088299 11.259595 -0.894475 -20.810526 8.028323 -1.566747 -8.840383 8.757634 8.908840 4.095988 -0.194255 59.423316 -1.896131 17.563506 5.415370 29.714690 13.471338 9.273183 7.409840 -2.793619 
-2.418110 115.656143 -27.522501 -175.807988 35.448207 -174.796313 6.050405 3.109372 -7.904395 -1.573488 3.943716 1.674905 3.383503 14.032478 -3.914806 1.766584 -1.157446 -0.557819 -1.452965 -1.935408 1.405213 0.767906 3.309043 13.864181 8.331616 -6.211405 2.039719 -0.667071 2.594760 -0.848749 -5.496627 2.551593 9.676960 -1.402651 -2.877003 -2.736781 0.229925 -0.831081 5.740989 -0.533182 9.183931 5.978298 3.576683 8.940385 5.808807 -10.353727 -5.690877 -2.432090 -49.135642 -14.465993 11.698895 -1.063978 -23.939584 8.880880 -0.906531 -9.577242 8.348174 8.903659 3.852453 -0.074780 59.181429 -1.917055 17.550988 5.334351 30.149501 13.387498 8.660111 7.554037 -2.879224 
-2.215905 115.606110 -26.944384 -176.394145 34.566552 -175.225146 5.936549 2.853619 -8.400477 -1.668400 3.611415 2.023174 3.106506 13.792978 -3.624433 1.797261 -1.184497 -0.589038 -1.547212 -2.320709 1.300601 0.834569 2.487766 15.777265 8.095866 -6.549114 1.741311 -0.455400 2.470689 -0.881072 -5.469541 2.726896 10.024207 -1.520861 -2.826312 -2.882248 0.200157 -0.756745 5.929687 -0.685134 9.460347 6.562077 3.361032 8.753858 6.537988 -10.080174 -5.359358 -2.428203 -48.916635 -14.581068 12.178619 -1.301075 -27.140286 9.903920 0.046874 -10.351614 7.632661 8.743932 3.675508 0.009107 58.861551 -1.977330 17.554082 5.280928 30.515593 13.553767 7.597769 7.766323 -3.017643 
